name D:\school\WTK\thesis\model\3dpredictsim\Results\MidTarsalJoint\Fal_s1_bCst_PF_Natali2010_ls144_MT_nl_Gefen2001_Tmtp_ig24.mot
datacolumns 128
datarows 4
range 1.15585488 1.19053053
endheader
time	pelvis_tilt	pelvis_list	pelvis_rotation	pelvis_tx	pelvis_ty	pelvis_tz	hip_flexion_l	hip_adduction_l	hip_rotation_l	hip_flexion_r	hip_adduction_r	hip_rotation_r	knee_angle_l	knee_angle_r	ankle_angle_l	ankle_angle_r	subtalar_angle_l	subtalar_angle_r	tmt_angle_l	tmt_angle_r	mtp_angle_l	mtp_angle_r	lumbar_extension	lumbar_bending	lumbar_rotation	arm_flex_l	arm_add_l	arm_rot_l	arm_flex_r	arm_add_r	arm_rot_r	elbow_flex_l	elbow_flex_r	pro_sup_l	pro_sup_r	glut_med1_l/activation	glut_med2_l/activation	glut_med3_l/activation	glut_min1_l/activation	glut_min2_l/activation	glut_min3_l/activation	semimem_l/activation	semiten_l/activation	bifemlh_l/activation	bifemsh_l/activation	sar_l/activation	add_long_l/activation	add_brev_l/activation	add_mag1_l/activation	add_mag2_l/activation	add_mag3_l/activation	tfl_l/activation	pect_l/activation	grac_l/activation	glut_max1_l/activation	glut_max2_l/activation	glut_max3_l/activation	iliacus_l/activation	psoas_l/activation	quad_fem_l/activation	gem_l/activation	peri_l/activation	rect_fem_l/activation	vas_med_l/activation	vas_int_l/activation	vas_lat_l/activation	med_gas_l/activation	lat_gas_l/activation	soleus_l/activation	tib_post_l/activation	flex_dig_l/activation	flex_hal_l/activation	tib_ant_l/activation	per_brev_l/activation	per_long_l/activation	per_tert_l/activation	ext_dig_l/activation	ext_hal_l/activation	ercspn_l/activation	intobl_l/activation	extobl_l/activation	glut_med1_r/activation	glut_med2_r/activation	glut_med3_r/activation	glut_min1_r/activation	glut_min2_r/activation	glut_min3_r/activation	semimem_r/activation	semiten_r/activation	bifemlh_r/activation	bifemsh_r/activation	sar_r/activation	add_long_r/activation	add_brev_r/activation	add_mag1_r/activation	add_mag2_r/activation	add_mag3_r/activation	tfl_r/activation	pect_r/activation	grac_r/activation	glut_max1_r/activation	glut_max2_r/activation	glut_max3_r/activation	iliacus_r/activation	psoas_r/activation	quad_fem_r/activation	gem_r/activation	peri_r/activation	rect_fem_r/activation	vas_med_r/activation	vas_int_r/activation	vas_lat_r/activation	med_gas_r/activation	lat_gas_r/activation	soleus_r/activation	tib_post_r/activation	flex_dig_r/activation	flex_hal_r/activation	tib_ant_r/activation	per_brev_r/activation	per_long_r/activation	per_tert_r/activation	ext_dig_r/activation	ext_hal_r/activation	ercspn_r/activation	intobl_r/activation	extobl_r/activation	
          1.15585488	         -2.92838948	         -2.60389329	          5.65612513	          1.44481860	          0.92157626	         -0.00221239	        -16.50392952	         -1.01370542	          7.02115252	         27.47431841	          4.11933524	         -2.27759344	         -8.76001956	         -6.50232537	         -0.59913469	          7.99254165	          5.77394235	         -6.33188978	         -0.17033454	         -9.02107622	         18.03892283	         24.30428338	         -2.08523415	          0.68065333	         -2.31187777	          4.68058482	        -13.45526797	         16.12562484	         -6.05501546	        -13.45788412	          4.89929782	         37.93128684	         17.35671006	         86.51662706	         86.51662706	          0.30093867	          0.08848283	          0.06331291	          0.30786774	          0.17175294	          0.10115639	          0.05000369	          0.05000072	          0.05000047	          0.05000137	          0.10116471	          0.06938733	          0.05961392	          0.05000536	          0.05000840	          0.05000196	          0.29764052	          0.05964075	          0.05000566	          0.05000369	          0.05000229	          0.05000215	          0.42182620	          0.63409157	          0.05000039	          0.05000133	          0.05000614	          0.29246362	          0.05000181	          0.05000178	          0.05000170	          0.24698962	          0.34918948	          0.31623312	          0.25774812	          0.24093534	          0.31998722	          0.05000014	          0.05963209	          0.09365076	          0.05000099	          0.05000025	          0.05000084	          0.05000005	          0.05000027	          0.05000361	          0.05963201	          0.05963188	          0.05000080	          0.05963216	          0.05963208	          0.05000720	          0.19948558	          0.10225604	          0.15974737	          0.07817546	          0.05000060	          0.14411306	          0.25760872	          0.28727957	          0.23541187	          0.11337623	          0.05000031	          0.05001172	          0.15948486	          0.05963901	          0.08329856	          0.15548204	          0.05000108	          0.05000062	          0.15163225	          0.28530727	          0.13383371	          0.05000103	          0.10888915	          0.10708822	          0.09140487	          0.06967268	          0.07150229	          0.06344626	          0.05000015	          0.05000107	          0.05000095	          0.49769712	          0.27458487	          0.19090376	          0.11360879	          0.53350057	          0.25060146	          0.05546697	          0.11914888	          0.10116091	
          1.16741343	         -2.93017565	         -2.67939162	          5.94005918	          1.46247594	          0.92077180	         -0.00205385	        -16.50657422	         -1.32954412	          6.82523878	         26.72622330	          4.49903532	         -2.01439604	        -10.41226266	         -6.86473041	         -1.12795041	          7.40299793	          6.83448274	         -6.56000762	         -1.46108896	         -9.13287149	         20.55142987	         24.30018114	         -1.86311813	          0.85096451	         -2.38875681	          4.32397329	        -13.46798582	         16.39524072	         -6.96472208	        -13.44973797	          4.74042332	         39.12827346	         16.97750473	         86.51662706	         86.51662706	          0.25232971	          0.07419070	          0.05308703	          0.25813989	          0.14401064	          0.08481722	          0.05000954	          0.05000276	          0.05000266	          0.05000096	          0.08482464	          0.12405779	          0.05000131	          0.05001210	          0.05001928	          0.05962866	          0.24956429	          0.05000972	          0.05000661	          0.05003373	          0.05002669	          0.05002494	          0.35369064	          0.58838063	          0.05000720	          0.05003179	          0.05000133	          0.24522332	          0.13291850	          0.14462421	          0.14388171	          0.20709446	          0.29278650	          0.26515360	          0.21611560	          0.20201900	          0.26830200	          0.05000005	          0.05000042	          0.10707837	          0.05000023	          0.05000009	          0.05000039	          0.05713602	          0.06723511	          0.07111973	          0.05000004	          0.05000012	          0.09454450	          0.05000014	          0.05000016	          0.05000022	          0.16726397	          0.08573925	          0.13394416	          0.06554855	          0.05963041	          0.12083562	          0.32875964	          0.29887053	          0.20338084	          0.11156047	          0.05000095	          0.08480744	          0.16021776	          0.05001351	          0.09841101	          0.13041005	          0.05000061	          0.05000931	          0.48486046	          0.23922295	          0.11221642	          0.05963238	          0.09130165	          0.08979167	          0.07664144	          0.07006655	          0.07111973	          0.06433379	          0.05963264	          0.05198839	          0.05963301	          0.51851200	          0.28964585	          0.23502798	          0.09526190	          0.47257891	          0.21012320	          0.05000002	          0.09990330	          0.08482084	
          1.17897198	         -2.92735647	         -2.76100544	          6.18761881	          1.48045238	          0.91995639	         -0.00192447	        -16.47640421	         -1.65139051	          6.62523165	         25.88431133	          4.75517191	         -1.72551196	        -12.09680897	         -7.32188242	         -1.76604295	          6.87771888	          7.87638859	         -6.79706258	         -2.98597407	         -9.30367505	         23.31915000	         24.41417394	         -1.62025021	          1.03811053	         -2.45186697	          3.88125609	        -13.47671097	         16.58534798	         -7.89810061	        -13.45426778	          4.64087446	         40.30738001	         16.64615072	         86.51662706	         86.51662706	          0.37105333	          0.06220711	          0.05000030	          0.34378968	          0.12074947	          0.07111731	          0.05000378	          0.05000051	          0.05000038	          0.05000126	          0.07112413	          0.10401975	          0.05001037	          0.05000121	          0.05000237	          0.05000105	          0.20925485	          0.07167115	          0.05000315	          0.05000415	          0.05000230	          0.05000140	          0.29656076	          0.56268092	          0.05000040	          0.05000152	          0.05000078	          0.20561355	          0.11145046	          0.12126570	          0.12064293	          0.17364339	          0.24549398	          0.22232447	          0.18120747	          0.16938804	          0.22496457	          0.05100926	          0.05832653	          0.13431356	          0.05000210	          0.08541647	          0.05000120	          0.05199883	          0.05637492	          0.05963210	          0.24428562	          0.25510084	          0.29035470	          0.40084858	          0.27911010	          0.20385753	          0.14248853	          0.07189158	          0.11231150	          0.06801267	          0.05000506	          0.10131766	          0.27565661	          0.25059553	          0.17053013	          0.11613082	          0.05000133	          0.07111000	          0.13433903	          0.11649336	          0.10671767	          0.10934589	          0.05001633	          0.05000120	          0.40654312	          0.20058260	          0.22203485	          0.05000045	          0.07655451	          0.07528845	          0.06426229	          0.05874908	          0.05963218	          0.05394228	          0.05000063	          0.05000109	          0.05000185	          0.59323083	          0.37166022	          0.19706619	          0.32080102	          0.57858612	          0.24167893	          0.06530683	          0.11984308	          0.07112012	
          1.19053053	         -2.92220723	         -2.83870113	          6.39627368	          1.49851116	          0.91920442	         -0.00176656	        -16.35491473	         -1.96648308	          6.44009432	         25.02253871	          4.97852559	         -1.43845198	        -13.89025887	         -7.74807015	         -2.51862249	          6.37225296	          8.90578256	         -7.04271093	         -4.71317377	         -9.22079078	         26.25530234	         24.49493096	         -1.38209880	          1.22943633	         -2.50490183	          3.39798424	        -13.49043736	         16.72697985	         -8.80206541	        -13.45996540	          4.59871706	         41.43192660	         16.33294557	         86.51662706	         86.51662706	          0.32733313	          0.05215925	          0.05000036	          0.28825974	          0.10124551	          0.05963032	          0.05000420	          0.05000056	          0.05000054	          0.05000031	          0.05963619	          0.09110640	          0.10874984	          0.05010887	          0.05005963	          0.11259456	          0.17545525	          0.06009732	          0.05000158	          0.05000902	          0.05000655	          0.05000651	          0.24865865	          0.50871328	          0.05000063	          0.05000221	          0.05000040	          0.17240171	          0.12856548	          0.12999965	          0.10116204	          0.14559552	          0.20584041	          0.18641335	          0.15193788	          0.14202777	          0.18862720	          0.10889512	          0.11322046	          0.11261905	          0.05000196	          0.15264194	          0.05099578	          0.07052100	          0.05000006	          0.05000013	          0.35639073	          0.36104379	          0.38919539	          0.33610169	          0.23403179	          0.28686443	          0.11947441	          0.07228478	          0.09417683	          0.05702768	          0.05000175	          0.08495234	          0.23113111	          0.21011848	          0.14298700	          0.15128990	          0.05000160	          0.05962526	          0.11264080	          0.22893037	          0.17795347	          0.14154483	          0.05000026	          0.05000031	          0.34087607	          0.16818356	          0.18617182	          0.05000039	          0.09171208	          0.09585540	          0.06642513	          0.05000015	          0.05000043	          0.05000006	          0.05000035	          0.05000138	          0.05000124	          0.66514960	          0.35091574	          0.21081529	          0.44279185	          0.59338164	          0.33766599	          0.08400458	          0.10048537	          0.05963242	
